<svg version="1.2" xmlns="http://www.w3.org/2000/svg" viewBox="0 0 512 512" width="512" height="512"><defs><clipPath clipPathUnits="userSpaceOnUse" id="cp1"><path d="m253.56 416.91c-106.58 0-109.71-85.33-109.71-85.33 0 0 3.83-31.69 14.63-31.69 17.06 0 20.2 31.69 95.08 31.69 74.89 0 80.46-31.69 97.53-31.69 10.79 0 14.62 31.69 14.62 31.69 0 0-5.57 85.33-112.15 85.33z"/></clipPath></defs><style>.a{fill:#9fdadd;stroke:#000;paint-order:stroke fill markers;stroke-miterlimit:100;stroke-width:24.4}.b{fill:#fbb8cb;stroke:#000;paint-order:stroke fill markers;stroke-miterlimit:100;stroke-width:14.6}.c{fill:none;stroke:#000;stroke-linecap:round;stroke-miterlimit:100;stroke-width:7.3}.d{fill:#923002}.e{fill:#ec8dab;stroke:#000;paint-order:stroke fill markers;stroke-miterlimit:100;stroke-width:14.6}.f{fill:#fff;stroke:#000;paint-order:stroke fill markers;stroke-miterlimit:100;stroke-width:14.6}.g{fill:none;stroke:#000;stroke-miterlimit:100;stroke-width:7.3}</style><path fill-rule="evenodd" class="a" d="m187.7 485.2c-6.9-9.6-6.1-31.1-14.6-63.4-3.4-2.7-7.9-2.4-9.7 0-5.3 12.2-12 21.4-26.9 19.5-0.2-13.4 8-37.3-2.4-41.5-15.6 7.9-39.6 17.9-61 12.2 0.7-28.3 12.2-44.6 24.4-60.9 1.9-8.1-39.7-5.9-39-14.6-1.2-11.8 20.9-12.6 22-26.9-21.5-11.2-48.4-19.2-58.6-36.5 8.8-23.6 53.1-28.4 51.2-34.2 2.5-8.6-28.3-9.2-29.2-21.9 10.3-8.7 28.2-2.7 39-14.6-13.5-12.3-26.7-25.8-29.3-39 24.2-12.9 49.4 5.9 53.7-4.9-8.6-24.6-10-55.4-2.5-82.9 25.6-2.5 54.3 9.3 75.6 21.9 1.4-7.1 4.1-36.5 4.9-36.5 9.7 5.2 21.9 13.4 31.7 24.3 9.4-0.3 9.8-49.7 36.6-60.9 17.8-2.3 33.3 60.9 36.5 60.9 11.9-10.3 23.6-25 34.2-24.3 3.3 10.1 0.2 28.7 4.8 36.5 20.3-9.9 41.2-25 75.6-21.9 11.7 48.2-6 83 2.5 87.8 16.1-5.3 37.8-9.4 48.7 2.4-9.5 20.5-21.1 22.5-29.2 39 1.4 5.5 28 4.1 36.5 12.2-2.5 8.7-21.3 14.6-29.2 19.5-1 6.1 48.9 18.3 53.6 36.6-8.7 16.9-39.4 27.4-58.5 34.1 0.4 18.7 22.7 19.6 21.9 31.7-11.7 7.1-27.4 5.9-39 7.3-4.3 14.4 29.3 30 22 68.3-25.3 0.1-43.8-6.5-61-14.7-5.5 1.7-1.4 28.3-2.4 41.5-21.1-4.7-20.9-14-31.7-21.9-11 10.9-7.7 73.3-21.9 65.8-8.6 0-39-31.7-46.4-43.9-5.7-2.6-10.4 23.2-14.6 26.8-3.9 6.7-10.6-27.2-17.1-26.8-4.2-5.1-22.4 39.7-51.2 43.9z"/><path fill-rule="evenodd" class="b" d="m253.6 153.6c48.2 0 92.6 41.4 92.6 86.6 0 45.1-41.5 76.8-92.6 76.8-51.2 0-92.7-31.7-92.7-76.8 0-38.7 39.2-86.6 92.7-86.6z"/><path fill-rule="evenodd" class="c" d="m95.1 224.3c-5.9 17.3 0 59.1 2.4 51.2 2.5-7.9 10.6-18.3 17.1-31.7 6.2 5.2 11.8 41.1 14.6 31.7 2.9-9.3 16-40.7 17.1-43.9"/><path fill-rule="evenodd" class="c" d="m412 224.3c5.9 17.3 0 59.1-2.4 51.2-2.4-7.9-10.5-18.3-17.1-31.7-6.1 5.2-11.8 41.1-14.6 31.7-2.8-9.3-16-40.7-17.1-43.9"/><path fill-rule="evenodd" d="m214.6 190.2c-30.5 0-29.3 37.2-29.3 41.4 0 35.7 32.6 68.3 68.3 68.3 35.6 0 70.7-32.6 70.7-68.3 0-4.2-4-41.4-31.7-41.4-30.5 0-39 26.8-39 26.8 0 0-8.6-26.8-39-26.8z"/><g clip-path="url(#cp1)"><path fill-rule="evenodd" class="d" d="m0 0h512v512h-512z"/><path fill-rule="evenodd" class="e" d="m253.6 363.3c49.8 0 90.2 43.6 90.2 97.5 0 53.9-40.4 97.5-90.2 97.5-49.9 0-90.2-43.6-90.2-97.5 0-53.9 40.3-97.5 90.2-97.5z"/><path fill-rule="evenodd" class="f" d="m253.6 268.2c14.8 0 26.8 24 26.8 53.6 0 29.7-14 53.7-26.8 53.7-12.9 0-26.9-24-26.9-53.7 0-29.6 12.1-53.6 26.9-53.6z"/></g><path fill-rule="evenodd" class="g" d="m253.6 416c-109.4-0.2-108.9-84.4-108.9-84.4 0 0 0.5-32.1 13.8-30.8 17 0 20.2 31.7 95.1 31.7 74.8 0 80.4-31.7 97.5-31.7 14.3-0.5 13.7 30.8 13.7 30.8 0 0-2.7 84.7-111.2 84.4z"/></svg>